<svg width="32" height="32" viewBox="0 0 32 32" fill="none" xmlns="http://www.w3.org/2000/svg">
<path d="M17.3202 29.2026C20.2352 26.6766 26.9646 20.0473 26.9646 12.6789C26.9646 6.62327 22.0555 1.71423 15.9999 1.71423C9.94432 1.71423 5.03528 6.62327 5.03528 12.6789C5.03528 20.0473 11.7647 26.6766 14.6797 29.2026C15.4458 29.8664 16.5541 29.8664 17.3202 29.2026Z" stroke="black" stroke-width="3.42857" stroke-linecap="round" stroke-linejoin="round"/>
<path d="M16 16.5259C18.4802 16.5259 20.4909 14.5153 20.4909 12.035C20.4909 9.55472 18.4802 7.54407 16 7.54407C13.5197 7.54407 11.509 9.55472 11.509 12.035C11.509 14.5153 13.5197 16.5259 16 16.5259Z" stroke="black" stroke-width="3.42857" stroke-linecap="round" stroke-linejoin="round"/>
</svg>
