<svg width="33" height="33" viewBox="0 0 33 33" fill="none" xmlns="http://www.w3.org/2000/svg">
<path d="M22.1501 16.5207C25.273 16.5207 27.8046 13.9891 27.8046 10.8662C27.8046 8.45047 26.2897 6.38855 24.1581 5.57861" stroke="black" stroke-width="3.53571" stroke-linecap="round" stroke-linejoin="round"/>
<path d="M12.6355 15.3998C16.0206 15.3998 18.7649 12.6556 18.7649 9.2704C18.7649 5.88522 16.0206 3.14099 12.6355 3.14099C9.25027 3.14099 6.50604 5.88522 6.50604 9.2704C6.50604 12.6556 9.25027 15.3998 12.6355 15.3998Z" stroke="black" stroke-width="3.53571" stroke-linecap="round" stroke-linejoin="round"/>
<path d="M22.024 24.0113C25.0222 26.0082 22.9977 29.8596 19.3953 29.8596H5.86752C2.2652 29.8596 0.240658 26.0082 3.23886 24.0113C5.92818 22.2201 9.1579 21.1763 12.6314 21.1763C16.105 21.1763 19.3347 22.2201 22.024 24.0113Z" stroke="black" stroke-width="3.53571"/>
<path d="M29.8735 24.4641L28.8935 25.9355L29.8735 24.4641ZM18.8743 28.0914C17.8979 28.0914 17.1064 28.8829 17.1064 29.8593C17.1064 30.8357 17.8979 31.6272 18.8743 31.6272V28.0914ZM28.154 21.5211C27.2587 21.1315 26.2171 21.5414 25.8275 22.4366C25.4379 23.3319 25.8478 24.3735 26.7431 24.7631L28.154 21.5211ZM18.8743 31.6272H27.4485V28.0914H18.8743V31.6272ZM27.4485 31.6272C29.738 31.6272 31.6857 30.3945 32.5384 28.6172C32.969 27.7195 33.1207 26.6663 32.834 25.618C32.5446 24.5597 31.85 23.6564 30.8535 22.9928L28.8935 25.9355C29.28 26.1929 29.3891 26.4246 29.4235 26.5506C29.4607 26.6866 29.4564 26.8671 29.3505 27.0879C29.1299 27.5476 28.4822 28.0914 27.4485 28.0914V31.6272ZM26.7431 24.7631C27.4967 25.0911 28.2159 25.4842 28.8935 25.9355L30.8535 22.9928C30.0036 22.4267 29.1008 21.9332 28.154 21.5211L26.7431 24.7631Z" fill="black"/>
</svg>
