<svg width="34" height="34" viewBox="0 0 34 34" fill="none" xmlns="http://www.w3.org/2000/svg">
<path d="M16.1256 29.8226C23.6903 29.8226 29.8226 23.6903 29.8226 16.1256C29.8226 8.56096 23.6903 2.42859 16.1256 2.42859C8.56096 2.42859 2.42859 8.56096 2.42859 16.1256C2.42859 23.6903 8.56096 29.8226 16.1256 29.8226Z" stroke="black" stroke-width="3.64286" stroke-linecap="round" stroke-linejoin="round"/>
<path d="M31.5714 31.5712L25.8206 25.8204" stroke="black" stroke-width="3.64286" stroke-linecap="round" stroke-linejoin="round"/>
<path d="M19.314 12.6497C19.314 12.6497 18.1153 11.3135 16.1713 11.4805C14.2272 11.6475 13.2901 12.8418 13.2901 14.0395C13.2901 17.5326 19.314 15.1119 19.314 18.6939C19.314 20.5407 15.3181 21.8442 12.9374 19.6716" stroke="black" stroke-width="3.64286" stroke-linecap="round" stroke-linejoin="round"/>
<path d="M16.4095 9.13147L16.4095 11.466" stroke="black" stroke-width="3.64286" stroke-linecap="round"/>
<path d="M16.4095 20.7855L16.4095 23.12" stroke="black" stroke-width="3.64286" stroke-linecap="round"/>
</svg>
