<svg width="25" height="25" viewBox="0 0 25 25" fill="none" xmlns="http://www.w3.org/2000/svg">
<path d="M1.99175 19.7742C2.13835 21.4843 3.46076 22.8882 5.15822 23.1422C6.71602 23.3754 8.32069 23.59 9.95973 23.59C11.5988 23.59 13.2034 23.3754 14.7613 23.1422C16.4587 22.8882 17.7811 21.4843 17.9277 19.7742C18.1254 17.4686 18.3277 15.08 18.3277 12.6326C18.3277 9.66016 18.3607 6.7743 18.2359 4.01878C18.1971 3.16148 17.5351 2.46628 16.6809 2.38423C12.2461 1.95827 7.67332 1.95827 3.23857 2.38423C2.38432 2.46628 1.72241 3.16148 1.68358 4.01878C1.55876 6.7743 1.59178 9.66015 1.59178 12.6326C1.59178 15.08 1.7941 17.4686 1.99175 19.7742Z" stroke="black" stroke-width="2.67857" stroke-linejoin="round"/>
<path d="M5.15816 23.1422C3.4607 22.8882 2.13829 21.4842 1.99169 19.7741C1.79404 17.4686 1.59172 15.0799 1.59172 12.6326C1.59172 12.1154 1.59072 11.6009 1.58973 11.0893C1.58826 10.335 1.58681 9.58696 1.58859 8.84582C7.12398 8.50858 12.7954 8.50859 18.3308 8.84583C18.3325 9.58698 18.3311 10.3351 18.3296 11.0893C18.3286 11.601 18.3276 12.1154 18.3276 12.6326C18.3276 15.0799 18.1253 17.4686 17.9277 19.7741C17.7811 21.4842 16.4586 22.8882 14.7612 23.1422C13.2034 23.3753 11.5987 23.5899 9.95967 23.5899C8.32063 23.5899 6.71596 23.3753 5.15816 23.1422Z" stroke="black" stroke-width="2.67857" stroke-linejoin="round"/>
<path d="M18.3174 7.50555C19.379 7.55987 20.419 7.65794 21.4317 7.74741C22.2865 7.82293 22.9843 8.48332 23.1082 9.3325C23.2607 10.378 23.4124 11.4597 23.4124 12.5672C23.4124 13.6747 23.2607 14.7564 23.1082 15.8018C22.9843 16.651 22.2865 17.3114 21.4317 17.3869C20.3479 17.4827 19.233 17.5883 18.0938 17.6395" stroke="black" stroke-width="2.67857" stroke-linejoin="round"/>
<path d="M7.25446 17.6652L7.25446 12.0536" stroke="black" stroke-width="2.67857" stroke-linecap="round" stroke-linejoin="round"/>
<path d="M12.4999 17.6652L12.4999 12.0536" stroke="black" stroke-width="2.67857" stroke-linecap="round" stroke-linejoin="round"/>
</svg>
