<svg width="25" height="25" viewBox="0 0 25 25" fill="none" xmlns="http://www.w3.org/2000/svg">
<path d="M12.375 1.56067C5.06696 1.56067 3.04579 4.20413 2.72585 9.49104C2.66687 10.4656 3.46868 11.2585 4.44504 11.2585H20.305C21.2814 11.2585 22.0832 10.4656 22.0242 9.49104C21.7043 4.20413 19.6831 1.56067 12.375 1.56067Z" stroke="black" stroke-width="2.65179" stroke-linecap="round" stroke-linejoin="round"/>
<path d="M5.10165 23.1893C3.16208 23.1893 2.67719 21.0343 2.67719 19.9567V18.8248C2.67719 17.8484 3.46868 17.0569 4.44504 17.0569H9.14242C13.1832 17.0569 14.2607 19.3467 14.7995 19.8855L18.0321 17.0569H20.305C21.2814 17.0569 22.0729 17.8484 22.0729 18.8248V19.9567C22.0729 22.5428 20.4566 23.1893 19.6484 23.1893H5.10165Z" stroke="black" stroke-width="2.65179" stroke-linecap="round" stroke-linejoin="round"/>
<path d="M4.44491 11.2585H20.3049C22.1903 11.2585 23.424 11.9301 23.424 14.1429C23.424 16.3482 22.2088 17.0569 20.3049 17.0569H18.032L14.7994 19.8855C14.7199 19.806 14.6288 19.6886 14.5182 19.546C13.8785 18.7213 12.5873 17.0569 9.14229 17.0569H4.44491C2.541 17.0569 1.32581 16.3483 1.32581 14.1429C1.32581 11.8966 2.54674 11.2585 4.44491 11.2585Z" stroke="black" stroke-width="2.65179" stroke-linejoin="round"/>
</svg>
