<svg width="22" height="22" viewBox="0 0 22 22" fill="none" xmlns="http://www.w3.org/2000/svg">
<path d="M18.6312 12.361C18.5819 12.2987 18.5552 12.2215 18.5555 12.1421V9.85789C18.5552 9.77846 18.5819 9.70129 18.6312 9.63902L19.6849 8.31874C19.8745 8.08144 19.9881 7.79248 20.0109 7.4896C20.0337 7.18672 19.9646 6.88402 19.8126 6.62103L19.1981 5.55751C19.0465 5.2943 18.8191 5.08293 18.5455 4.95102C18.2719 4.8191 17.9649 4.77278 17.6645 4.8181L15.9949 5.07205C15.9159 5.08313 15.8355 5.06784 15.7662 5.02856L13.7879 3.88647C13.7182 3.84457 13.6647 3.78027 13.6363 3.70407L13.0204 2.13825C12.9101 1.85578 12.7172 1.61312 12.4669 1.44192C12.2166 1.27073 11.9206 1.17895 11.6173 1.17856H10.3854C10.0822 1.17895 9.78612 1.27073 9.53583 1.44192C9.28555 1.61312 9.09267 1.85578 8.98238 2.13825L8.36363 3.70407C8.33415 3.77819 8.28084 3.84039 8.2121 3.88085L6.22957 5.02856C6.16024 5.06794 6.07982 5.08324 6.00087 5.07205L4.33544 4.8181C4.03511 4.77278 3.72809 4.8191 3.4545 4.95102C3.1809 5.08293 2.95346 5.2943 2.80189 5.55751L2.18735 6.62103C2.03539 6.88402 1.96628 7.18672 1.98905 7.4896C2.01183 7.79248 2.12544 8.08144 2.31503 8.31874L3.36873 9.63902C3.41804 9.70129 3.44475 9.77846 3.4445 9.85789V12.1421C3.44475 12.2215 3.41804 12.2987 3.36873 12.361L2.31503 13.6812C2.12544 13.9185 2.01183 14.2075 1.98905 14.5104C1.96628 14.8133 2.03539 15.116 2.18735 15.3789L2.80189 16.4425C2.95346 16.7057 3.1809 16.917 3.4545 17.049C3.72809 17.1809 4.03511 17.2272 4.33544 17.1819L6.00508 16.9279C6.08403 16.9167 6.16445 16.932 6.23378 16.9714L8.2121 18.1135C8.28084 18.154 8.33415 18.2162 8.36363 18.2903L8.97957 19.8617C9.08986 20.1442 9.28274 20.3869 9.53303 20.5581C9.78332 20.7292 10.0794 20.821 10.3826 20.8214H11.6117C11.915 20.821 12.211 20.7292 12.4613 20.5581C12.7116 20.3869 12.9045 20.1442 13.0148 19.8617L13.6307 18.2903C13.6602 18.2162 13.7135 18.154 13.7823 18.1135L15.7606 16.9714C15.8299 16.9321 15.9103 16.9168 15.9893 16.9279L17.6589 17.1819C17.9592 17.2272 18.2663 17.1809 18.5399 17.049C18.8134 16.917 19.0409 16.7057 19.1925 16.4425L19.807 15.3789C19.959 15.116 20.0281 14.8133 20.0053 14.5104C19.9825 14.2075 19.8689 13.9185 19.6793 13.6812L18.6312 12.361ZM11 14.1569C10.3756 14.1569 9.76525 13.9717 9.24611 13.6248C8.72696 13.278 8.32233 12.7849 8.0834 12.2081C7.84446 11.6312 7.78194 10.9965 7.90375 10.3841C8.02556 9.77173 8.32622 9.20923 8.76772 8.76773C9.20922 8.32623 9.77172 8.02557 10.3841 7.90376C10.9965 7.78195 11.6312 7.84447 12.2081 8.0834C12.7849 8.32234 13.278 8.72697 13.6248 9.24611C13.9717 9.76526 14.1569 10.3756 14.1569 11C14.1569 11.8372 13.8243 12.6402 13.2322 13.2322C12.6402 13.8243 11.8372 14.1569 11 14.1569Z" stroke="#DC3C4D" stroke-width="2.35714"/>
</svg>
