<svg width="29" height="33" viewBox="0 0 29 33" fill="none" xmlns="http://www.w3.org/2000/svg">
<g filter="url(#filter0_d_2_593)">
<path d="M12.6801 1.4338L11.9933 2.58357C12.0337 2.6077 12.0754 2.62969 12.1181 2.64944L12.6801 1.4338ZM11.9952 1.4338L11.3083 0.284026C11.2579 0.314158 11.2095 0.347577 11.1634 0.384066L11.9952 1.4338ZM11.8924 2.01602L13.0522 1.34628C13.046 1.33556 13.0397 1.32492 13.0332 1.31438L11.8924 2.01602ZM11.5671 13.3694L10.7054 14.3947C11.2278 14.8336 11.9966 14.8097 12.4907 14.3392L11.5671 13.3694ZM8.99842 9.94452L10.224 9.40445C10.0721 9.05985 9.78221 8.7951 9.42528 8.67508C9.06834 8.55506 8.67736 8.59086 8.34815 8.7737L8.99842 9.94452ZM5.57358 15.938L4.23473 15.9722C4.2349 15.9789 4.23512 15.9855 4.23539 15.9922L5.57358 15.938ZM22.6978 15.938L24.0358 15.9969L24.0358 15.996L22.6978 15.938ZM13.3669 0.284026C13.0558 0.0981531 12.7001 8.70228e-06 12.3376 8.70228e-06V2.67858C12.2164 2.67858 12.0974 2.64575 11.9933 2.58357L13.3669 0.284026ZM12.3376 8.70228e-06C11.9752 8.70228e-06 11.6195 0.0981545 11.3083 0.284026L12.682 2.58357C12.5779 2.64575 12.4589 2.67858 12.3376 2.67858V8.70228e-06ZM11.1634 0.384066C10.8211 0.655274 10.5902 1.04258 10.5143 1.47264L13.1521 1.93814C13.1141 2.1536 12.9984 2.34765 12.8269 2.48353L11.1634 0.384066ZM10.5143 1.47264C10.4384 1.90271 10.5228 2.34568 10.7516 2.71766L13.0332 1.31438C13.1478 1.50075 13.1901 1.72268 13.1521 1.93814L10.5143 1.47264ZM10.7326 2.68576C11.683 4.3315 12.2461 6.25966 12.2592 8.04287C12.2722 9.82151 11.7443 11.3511 10.6434 12.3995L12.4907 14.3392C14.2667 12.6478 14.9546 10.3244 14.9377 8.0232C14.9208 5.72657 14.2081 3.34799 13.0522 1.34628L10.7326 2.68576ZM12.4287 12.344C11.4786 11.5457 10.7244 10.54 10.224 9.40445L7.77286 10.4846C8.43849 11.9951 9.44174 13.3327 10.7054 14.3947L12.4287 12.344ZM8.34815 8.7737C7.07038 9.48337 6.01143 10.5295 5.28626 11.7986L7.61191 13.1275C8.09429 12.2833 8.79871 11.5874 9.64869 11.1154L8.34815 8.7737ZM5.28626 11.7986C4.56109 13.0676 4.19742 14.511 4.23473 15.9722L6.91243 15.9038C6.88761 14.9319 7.12953 13.9717 7.61191 13.1275L5.28626 11.7986ZM14.1357 24.9832C17.1794 24.9832 19.6293 24.0309 21.3486 22.3555C23.06 20.6877 23.9292 18.4183 24.0358 15.9969L21.3598 15.8791C21.278 17.7388 20.6232 19.3223 19.4791 20.4372C18.3429 21.5444 16.6059 22.3046 14.1357 22.3046V24.9832ZM24.0358 15.996C24.285 10.2459 20.2609 3.46317 13.2422 0.21815L12.1181 2.64944C18.285 5.50064 21.5558 11.3556 21.3598 15.88L24.0358 15.996ZM4.23539 15.9922C4.33669 18.4937 5.20163 20.7735 6.92771 22.4282C8.65699 24.086 11.1114 24.9832 14.1357 24.9832V22.3046C11.646 22.3046 9.90953 21.5761 8.78135 20.4946C7.64997 19.41 6.99086 17.8369 6.91177 15.8838L4.23539 15.9922Z" fill="black"/>
<path d="M18.4168 15.938C18.4168 16.8464 18.056 17.7175 17.4137 18.3598C16.7714 19.0021 15.9003 19.3629 14.992 19.3629" stroke="black" stroke-width="2.67857" stroke-linecap="round" stroke-linejoin="round"/>
</g>
<defs>
<filter id="filter0_d_2_593" x="-2" y="0" width="33" height="33" filterUnits="userSpaceOnUse" color-interpolation-filters="sRGB">
<feFlood flood-opacity="0" result="BackgroundImageFix"/>
<feColorMatrix in="SourceAlpha" type="matrix" values="0 0 0 0 0 0 0 0 0 0 0 0 0 0 0 0 0 0 127 0" result="hardAlpha"/>
<feOffset dy="4"/>
<feGaussianBlur stdDeviation="2"/>
<feComposite in2="hardAlpha" operator="out"/>
<feColorMatrix type="matrix" values="0 0 0 0 0 0 0 0 0 0 0 0 0 0 0 0 0 0 0.25 0"/>
<feBlend mode="normal" in2="BackgroundImageFix" result="effect1_dropShadow_2_593"/>
<feBlend mode="normal" in="SourceGraphic" in2="effect1_dropShadow_2_593" result="shape"/>
</filter>
</defs>
</svg>
