<svg width="25" height="25" viewBox="0 0 25 25" fill="none" xmlns="http://www.w3.org/2000/svg">
<path d="M23.1877 16.3103C21.3574 18.1405 9.64952 21.5304 4.07776 23.0671C2.76175 23.4301 1.56982 22.2382 1.93279 20.9222C3.46953 15.3504 6.85942 3.64251 8.68967 1.81226C11.106 -0.604078 25.604 13.8939 23.1877 16.3103Z" stroke="black" stroke-width="2.67857" stroke-linejoin="round"/>
<path d="M19.435 18.236C18.0697 18.7719 16.4568 19.3345 14.7634 19.8882C14.2926 19.6685 13.8289 19.334 13.3795 18.8847C11.6216 17.1268 11.6216 15.1492 13.3795 13.3913C15.1374 11.6334 17.115 11.6334 18.8729 13.3913C20.4175 14.9359 20.6049 16.6502 19.435 18.236Z" stroke="black" stroke-width="2.67857" stroke-linecap="round" stroke-linejoin="round"/>
<path d="M2.7066 18.1648C3.16829 16.5474 3.70227 14.7269 4.26667 12.8998C5.12156 12.7372 5.98867 13.0592 6.7952 13.8658C8.13772 15.2083 8.13772 16.7186 6.7952 18.0612C5.48816 19.3682 4.02205 19.4027 2.7066 18.1648Z" stroke="black" stroke-width="2.67857" stroke-linecap="round" stroke-linejoin="round"/>
<path d="M19.1134 18.361C21.1031 17.5953 22.6205 16.8778 23.1881 16.3102C25.6044 13.8939 11.1064 -0.60411 8.69007 1.81222C8.12004 2.38225 7.39873 3.91042 6.62923 5.91293C10.3762 7.43686 17.5287 14.5773 19.1134 18.361Z" stroke="black" stroke-width="2.67857" stroke-linejoin="round"/>
</svg>
